<svg id="Layer_1" data-name="Layer 1" xmlns="http://www.w3.org/2000/svg" viewBox="0 0 2.34 4.83"><defs><style>.cls-1{fill:#a5a5a5;}</style></defs><path class="cls-1" d="M1.73,3.24V4.8a0,0,0,0,1,0,0H1.3a0,0,0,0,1,0,0V2.87s0,0,0,0H1.07s0,0,0,0V4.8s0,0,0,0H.63s0,0,0,0V1.67s0,0,0,0,0,0,0,0c-.07.34-.14.67-.2,1a.2.2,0,0,1-.23.16A.2.2,0,0,1,0,2.61c0-.09,0-.17.05-.25L.23,1.5a.87.87,0,0,1,.1-.31A.67.67,0,0,1,.86.9h.6a.65.65,0,0,1,.59.38,1.25,1.25,0,0,1,.08.32l.21,1a.2.2,0,0,1-.15.23A.2.2,0,0,1,2,2.68c-.07-.31-.13-.62-.19-.94,0,0,0-.05,0-.07a0,0,0,0,0,0,0s0,0,0,0V3.24Z" transform="translate(0 0)"/><path class="cls-1" d="M1.62.45A.45.45,0,1,1,1.19,0,.46.46,0,0,1,1.62.45Z" transform="translate(0 0)"/></svg>